<?xml version="1.0" encoding="UTF-8" standalone="no"?>
<svg
   width="198"
   height="52"
   viewBox="0 0 198 52"
   fill="none"
   version="1.1"
   id="svg24"
   sodipodi:docname="56b1bb08a2bdac49831465a81baa0f8a.svg"
   xmlns:inkscape="http://www.inkscape.org/namespaces/inkscape"
   xmlns:sodipodi="http://sodipodi.sourceforge.net/DTD/sodipodi-0.dtd"
   xmlns="http://www.w3.org/2000/svg"
   xmlns:svg="http://www.w3.org/2000/svg">
  <defs
     id="defs28" />
  <sodipodi:namedview
     id="namedview26"
     pagecolor="#ffffff"
     bordercolor="#666666"
     borderopacity="1.0"
     inkscape:pageshadow="2"
     inkscape:pageopacity="0.0"
     inkscape:pagecheckerboard="0" />
  <path
     d="M192.034 18.7492C192.034 18.3819 192.107 18.0146 192.253 17.7208C192.399 17.427 192.618 17.1331 192.837 16.8393C193.055 16.6189 193.347 16.3985 193.712 16.2516C194.076 16.1047 194.368 16.0312 194.733 16.0312C195.098 16.0312 195.462 16.1047 195.754 16.2516C196.046 16.3985 196.338 16.6189 196.629 16.8393C196.921 17.0597 197.067 17.3535 197.213 17.7208C197.359 18.0146 197.432 18.3819 197.432 18.7492C197.432 19.1165 197.359 19.4838 197.213 19.7777C197.067 20.0715 196.848 20.3653 196.629 20.5857C196.41 20.8061 196.119 21.0265 195.754 21.1734C195.462 21.3203 195.098 21.3938 194.733 21.3938C194.368 21.3938 194.004 21.3203 193.712 21.1734C193.42 21.0265 193.128 20.8796 192.837 20.5857C192.618 20.3653 192.399 20.0715 192.253 19.7777C192.107 19.4104 192.034 19.1165 192.034 18.7492ZM192.399 18.7492C192.399 19.0431 192.472 19.3369 192.545 19.6307C192.618 19.9246 192.837 20.145 193.055 20.3653C193.274 20.5857 193.493 20.7326 193.785 20.8796C194.077 21.0265 194.368 21.0265 194.66 21.0265C194.952 21.0265 195.243 20.953 195.535 20.8796C195.827 20.8061 196.046 20.5857 196.265 20.3653C196.483 20.145 196.629 19.9246 196.775 19.6307C196.921 19.3369 196.921 19.0431 196.921 18.7492C196.921 18.4554 196.848 18.1616 196.775 17.8677C196.702 17.5739 196.483 17.3535 196.265 17.1331C196.046 16.9128 195.827 16.7658 195.535 16.6189C195.243 16.472 194.952 16.472 194.66 16.472C194.368 16.472 194.077 16.5455 193.785 16.6189C193.493 16.7658 193.274 16.9128 193.055 17.1331C192.837 17.3535 192.691 17.5739 192.545 17.8677C192.399 18.1616 192.399 18.3819 192.399 18.7492ZM195.316 20.2184L194.66 19.0431H194.222V20.2184H193.493V17.2066H194.806C194.952 17.2066 195.098 17.2066 195.243 17.2801C195.389 17.2801 195.462 17.3535 195.608 17.427C195.681 17.5004 195.827 17.5739 195.9 17.7208C195.973 17.8677 195.973 18.0146 195.973 18.1616C195.973 18.3819 195.9 18.5289 195.827 18.6758C195.754 18.8227 195.535 18.8962 195.389 18.9696L196.192 20.2184H195.316ZM194.806 18.5289C194.879 18.5289 195.025 18.5289 195.098 18.4554C195.171 18.3819 195.243 18.3085 195.243 18.1616C195.243 18.0146 195.171 17.9412 195.098 17.8677C195.025 17.7943 194.879 17.7943 194.806 17.7943H194.222V18.5289H194.806Z"
     fill="white"
     id="path2" />
  <path
     d="M86.496 20.217L83.7973 21.172C81.9739 19.1886 79.4212 18.2336 76.1391 18.2336C73.6592 18.2336 71.617 18.8947 70.0854 20.1436C68.5537 21.3924 67.7514 23.0819 67.7514 25.0653C67.7514 27.1222 68.5537 28.7383 70.0854 30.0605C71.617 31.3093 73.7322 31.9705 76.3579 31.9705C79.567 31.9705 82.0469 31.0155 83.8703 28.9587L86.423 30.3544C85.1102 31.897 83.6515 32.9989 82.0469 33.66C80.4423 34.3212 78.473 34.6885 76.212 34.6885C73.0028 34.6885 70.3771 33.8804 68.262 32.2643C65.8551 30.4278 64.6881 28.0037 64.6881 25.0653C64.6881 22.1269 65.928 19.7763 68.3349 17.9398C70.4501 16.3237 73.0757 15.5156 76.212 15.5156C80.6611 15.5156 84.0891 17.0583 86.496 20.217Z"
     fill="white"
     id="path4" />
  <path
     d="M129.236 16.1035C131.06 16.1035 132.518 16.6177 133.613 17.6462C134.707 18.6746 135.217 20.0703 135.217 21.7599C135.217 23.5964 134.634 24.9186 133.54 25.8736C132.446 26.8286 130.768 27.2693 128.653 27.2693H117.931V34.1745H114.941V16.1035H129.236ZM128.726 24.5513C131.06 24.5513 132.154 23.5964 132.154 21.7599C132.154 19.7765 130.914 18.748 128.507 18.748H117.931V24.5513H128.726Z"
     fill="white"
     id="path6" />
  <path
     d="M158.994 34.1745H155.493L150.607 27.2693H141.563V34.1745H138.572V16.1035H152.722C154.618 16.1035 156.077 16.6177 157.171 17.6462C158.265 18.6746 158.776 20.0703 158.776 21.8333C158.776 23.376 158.338 24.6248 157.463 25.5063C156.66 26.3878 155.566 26.902 154.108 27.1224L158.994 34.1745ZM152.357 24.5513C154.691 24.5513 155.785 23.5964 155.785 21.7599C155.785 19.7765 154.545 18.748 152.065 18.748H141.563V24.5513H152.357Z"
     fill="white"
     id="path8" />
  <path
     d="M166.653 34.1745H163.662V16.1035H166.653V34.1745Z"
     fill="white"
     id="path10" />
  <path
     d="M102.104 16.1035H98.3846L88.83 34.1745H92.1121L100.281 18.6746L108.377 34.1745H111.586L102.104 16.1035Z"
     fill="white"
     id="path12" />
  <path
     d="M100.281 31.75C101.369 31.75 102.25 30.862 102.25 29.7666C102.25 28.6712 101.369 27.7832 100.281 27.7832C99.1933 27.7832 98.3116 28.6712 98.3116 29.7666C98.3116 30.862 99.1933 31.75 100.281 31.75Z"
     fill="white"
     id="path14" />
  <path
     d="M183.282 16.1035H179.562L170.008 34.1745H173.29L181.459 18.6746L189.554 34.1745H192.764L183.282 16.1035Z"
     fill="white"
     id="path16" />
  <path
     d="M181.459 31.75C182.546 31.75 183.428 30.862 183.428 29.7666C183.428 28.6712 182.546 27.7832 181.459 27.7832C180.371 27.7832 179.489 28.6712 179.489 29.7666C179.489 30.862 180.371 31.75 181.459 31.75Z"
     fill="white"
     id="path18" />
  <path
     d="M53.602 32.8516C52.3621 33.4392 51.1951 33.9535 49.9552 34.4677C49.8823 34.4677 49.8823 34.5411 49.8093 34.5411C35.8056 40.4913 23.8441 42.034 14.2895 41.6667C9.84043 41.5197 6.12069 40.4913 3.64087 38.7283C8.01703 46.5884 16.3317 51.8775 25.8134 51.8775C35.4409 51.8775 43.8286 46.4415 48.1318 38.5079C41.2758 41.2994 34.274 42.5482 34.274 42.5482C41.3488 40.0506 46.2355 37.553 49.3717 35.7165C49.4446 35.7165 49.4446 35.643 49.5176 35.643C50.3928 35.1288 51.1222 34.6146 51.7057 34.2473C53.0185 33.3658 53.602 32.8516 53.602 32.8516Z"
     fill="white"
     id="path20" />
  <path
     d="M50.9763 22.4216C49.1529 10.0805 38.5771 0.677734 25.8863 0.677734C11.8097 0.677734 0.431641 12.1374 0.431641 26.315C0.431641 27.4903 0.504577 28.5922 0.650448 29.6941C2.03623 25.6539 6.19358 20.9525 13.9977 15.8103C8.60047 21.5401 5.46422 29.4003 9.69451 32.8529C10.1321 33.2201 10.6427 33.514 11.2991 33.7344C12.4661 34.1751 13.9248 34.469 15.7482 34.6159C17.3528 34.6893 19.2491 34.6159 21.2913 34.3955C21.9477 34.322 22.6042 34.2486 23.2606 34.1751C24.9381 33.9547 26.7615 33.5874 28.6579 33.0732C29.3143 32.9263 29.9707 32.7059 30.6271 32.559C32.3776 32.0448 34.201 31.5306 36.0244 30.8695C40.984 29.1064 46.1625 26.7557 51.268 23.6705C54.1854 21.9074 57.1029 19.924 59.8744 17.7937C56.8111 19.4833 53.8937 21.0259 50.9763 22.4216ZM15.6753 32.0448V11.9904H21.2184V32.1917C18.7386 32.4856 16.8422 32.4121 15.6753 32.0448ZM23.1877 31.8979V8.09711H28.5849V30.796C26.6156 31.2367 24.7922 31.6775 23.1877 31.8979ZM30.4813 30.2818V4.20377H35.8785V28.5922C34.0551 29.2534 32.2317 29.7676 30.4813 30.2818Z"
     fill="white"
     id="path22" />
</svg>
