<svg width="60" height="60" viewBox="0 0 60 60" fill="none" xmlns="http://www.w3.org/2000/svg">
<path d="M46.125 32.8125C46.9534 32.8125 47.625 32.1409 47.625 31.3125C47.625 30.4841 46.9534 29.8125 46.125 29.8125C45.2966 29.8125 44.625 30.4841 44.625 31.3125C44.625 32.1409 45.2966 32.8125 46.125 32.8125Z" fill="#808080"/>
<path d="M41.625 42.5625C42.8676 42.5625 43.875 41.5551 43.875 40.3125C43.875 39.0699 42.8676 38.0625 41.625 38.0625C40.3824 38.0625 39.375 39.0699 39.375 40.3125C39.375 41.5551 40.3824 42.5625 41.625 42.5625Z" fill="#808080"/>
<path d="M38.6358 22.3125C36.002 22.3092 33.4025 22.9098 31.0368 24.0682C28.6711 25.2266 26.6021 26.9119 24.9886 28.9949C23.3751 31.0779 22.2601 33.5032 21.729 36.0845C21.198 38.6658 21.2651 41.3345 21.9252 43.8858C22.5853 46.4371 23.8208 48.8032 25.5369 50.8023C27.2531 52.8015 29.4042 54.3806 31.8251 55.4185C34.246 56.4564 36.8724 56.9254 39.5027 56.7896C42.1329 56.6537 44.6971 55.9166 46.9984 54.6349C46.4655 54.1638 46.0322 53.5907 45.724 52.9495C45.4159 52.3082 45.2391 51.6117 45.204 50.901C45.169 50.1903 45.2765 49.4798 45.5201 48.8113C45.7638 48.1428 46.1387 47.5299 46.6227 47.0086C47.1067 46.4874 47.6901 46.0683 48.3385 45.7761C48.9869 45.4839 49.6871 45.3245 50.398 45.3073C51.1089 45.2901 51.8161 45.4154 52.4778 45.6759C53.1396 45.9363 53.7425 46.3267 54.2512 46.8239C55.4803 44.198 56.0264 41.3039 55.8389 38.4102C55.6514 35.5166 54.7364 32.7173 53.1786 30.2721C51.6209 27.827 49.4711 25.8153 46.9286 24.4238C44.3862 23.0322 41.5337 22.306 38.6358 22.3125ZM29.6058 32.9911C29.6058 32.6662 29.7021 32.3485 29.8825 32.0784C30.0629 31.8082 30.3193 31.5976 30.6193 31.4733C30.9193 31.349 31.2494 31.3164 31.5679 31.3798C31.8864 31.4432 32.1789 31.5997 32.4086 31.8294C32.6382 32.0592 32.7945 32.3519 32.8579 32.6706C32.9212 32.9893 32.8887 33.3196 32.7645 33.6198C32.6402 33.92 32.4298 34.1766 32.1598 34.3571C31.8898 34.5376 31.5723 34.634 31.2476 34.634C30.8122 34.634 30.3946 34.4609 30.0867 34.1528C29.7788 33.8447 29.6058 33.4268 29.6058 32.9911ZM32.0685 51.8839C31.7438 51.8839 31.4264 51.7876 31.1564 51.6071C30.8864 51.4265 30.6759 51.17 30.5517 50.8698C30.4274 50.5696 30.3949 50.2393 30.4582 49.9206C30.5216 49.6019 30.678 49.3092 30.9076 49.0794C31.1372 48.8497 31.4297 48.6932 31.7482 48.6298C32.0667 48.5664 32.3968 48.5989 32.6968 48.7233C32.9968 48.8476 33.2532 49.0582 33.4336 49.3284C33.6141 49.5985 33.7103 49.9162 33.7103 50.2411C33.7103 50.6768 33.5374 51.0947 33.2295 51.4028C32.9216 51.7109 32.504 51.8839 32.0685 51.8839ZM41.9195 44.4911C41.1076 44.4911 40.3141 44.2502 39.6391 43.7989C38.9641 43.3476 38.438 42.7062 38.1273 41.9557C37.8167 41.2052 37.7354 40.3794 37.8938 39.5827C38.0521 38.786 38.4431 38.0542 39.0171 37.4798C39.5911 36.9054 40.3225 36.5142 41.1187 36.3557C41.9149 36.1973 42.7402 36.2786 43.4902 36.5895C44.2402 36.9003 44.8813 37.4267 45.3323 38.1021C45.7833 38.7776 46.024 39.5716 46.024 40.384C46.0227 41.4728 45.5898 42.5167 44.8204 43.2867C44.0509 44.0567 43.0076 44.4898 41.9195 44.4911ZM46.4345 34.634C45.785 34.634 45.1502 34.4413 44.6102 34.0802C44.0702 33.7192 43.6493 33.206 43.4008 32.6056C43.1522 32.0052 43.0872 31.3446 43.2139 30.7072C43.3406 30.0699 43.6534 29.4844 44.1126 29.0249C44.5718 28.5654 45.1569 28.2525 45.7939 28.1257C46.4308 27.9989 47.0911 28.064 47.6911 28.3126C48.2911 28.5613 48.8039 28.9825 49.1647 29.5228C49.5255 30.0631 49.7181 30.6984 49.7181 31.3482C49.7181 32.2197 49.3722 33.0554 48.7563 33.6716C48.1405 34.2878 47.3053 34.634 46.4345 34.634Z" fill="#808080"/>
<path d="M50.2408 47.0625C49.5202 47.0632 48.8189 47.3171 48.2397 47.787C47.6605 48.2569 47.234 48.918 47.0229 49.6733C46.8117 50.4285 46.827 51.2381 47.0666 51.9831C47.3061 52.7281 47.7572 53.3693 48.3536 53.8125C50.1879 52.4049 51.7289 50.5868 52.875 48.4782C52.5625 48.0387 52.163 47.683 51.7066 47.4377C51.2503 47.1925 50.749 47.0642 50.2408 47.0625Z" fill="#808080"/>
<path d="M45.8494 18.9535L46.68 12.3038C46.7046 12.0602 46.633 11.8167 46.4804 11.6253C46.3278 11.4338 46.1064 11.3096 45.8635 11.2793C45.6206 11.2489 45.3755 11.3148 45.1805 11.4628C44.9855 11.6108 44.8561 11.8292 44.82 12.0713L43.9847 18.75H43.2272C42.4559 15.9621 41.0213 13.4022 39.0459 11.2891C37.0706 9.17594 34.6131 7.57227 31.8834 6.61503C31.894 6.24161 31.8294 5.86989 31.6934 5.52195C31.5574 5.17402 31.3528 4.85698 31.0918 4.5897C30.8308 4.32242 30.5188 4.11035 30.1742 3.9661C29.8296 3.82185 29.4595 3.74837 29.0859 3.75003H23.0391C22.6655 3.74826 22.2955 3.82158 21.9508 3.96565C21.6062 4.10971 21.2941 4.32158 21.0329 4.58866C20.7718 4.85574 20.567 5.17258 20.4308 5.52036C20.2945 5.86815 20.2295 6.23977 20.2397 6.61316C17.4966 7.55062 15.026 9.14775 13.045 11.2641C11.064 13.3804 9.63344 15.9511 8.87906 18.75H8.14031L7.305 12.0713C7.2689 11.8292 7.13952 11.6108 6.94452 11.4628C6.74953 11.3148 6.50438 11.2489 6.26147 11.2793C6.01856 11.3096 5.79716 11.4338 5.6446 11.6253C5.49203 11.8167 5.42039 12.0602 5.445 12.3038L6.27562 18.9535C5.75265 19.1609 5.3039 19.5204 4.98737 19.9855C4.67084 20.4506 4.50107 20.9999 4.5 21.5625V25.3125C4.5 26.0585 4.79632 26.7738 5.32376 27.3013C5.85121 27.8287 6.56658 28.125 7.3125 28.125H8.89687C9.96375 32.0083 12.313 35.4165 15.5625 37.7953C13.9975 38.2442 12.6209 39.1897 11.6401 40.4893C10.6593 41.7888 10.1276 43.3719 10.125 45V49.6875C10.125 49.9362 10.2238 50.1746 10.3996 50.3504C10.5754 50.5263 10.8139 50.625 11.0625 50.625H41.0625C41.3111 50.625 41.5496 50.5263 41.7254 50.3504C41.9012 50.1746 42 49.9362 42 49.6875V45C41.9974 43.3719 41.4657 41.7888 40.4849 40.4893C39.5041 39.1897 38.1275 38.2442 36.5625 37.7953C39.812 35.4165 42.1613 32.0083 43.2281 28.125H44.8125C45.5584 28.125 46.2738 27.8287 46.8012 27.3013C47.3287 26.7738 47.625 26.0585 47.625 25.3125V21.5625C47.6239 20.9999 47.4542 20.4506 47.1376 19.9855C46.8211 19.5204 46.3723 19.1609 45.8494 18.9535ZM23.0391 5.62503H29.0859C29.2345 5.625 29.3809 5.66026 29.5132 5.72792C29.6454 5.79558 29.7597 5.89369 29.8466 6.01418C29.9335 6.13467 29.9905 6.27408 30.0129 6.42093C30.0353 6.56777 30.0226 6.71784 29.9756 6.85878L29.3503 8.73378C29.2882 8.92038 29.1689 9.08272 29.0094 9.1978C28.8499 9.31288 28.6582 9.37488 28.4616 9.37503H23.6634C23.4668 9.37488 23.2751 9.31288 23.1156 9.1978C22.9561 9.08272 22.8368 8.92038 22.7747 8.73378L22.1494 6.85878C22.1024 6.71784 22.0897 6.56777 22.1121 6.42093C22.1345 6.27408 22.1915 6.13467 22.2784 6.01418C22.3653 5.89369 22.4796 5.79558 22.6118 5.72792C22.7441 5.66026 22.8905 5.625 23.0391 5.62503ZM20.6953 8.43753L20.9916 9.32628C21.1783 9.887 21.537 10.3746 22.0166 10.72C22.4962 11.0653 23.0724 11.2508 23.6634 11.25H28.4616C29.0519 11.25 29.6273 11.0641 30.1062 10.7189C30.585 10.3736 30.9431 9.8864 31.1297 9.32628L31.4259 8.43753C33.5657 9.21241 35.5159 10.4342 37.1466 12.0216C38.7774 13.609 40.0512 15.5256 40.8834 17.6438C37.7156 14.8988 32.3128 13.125 26.0625 13.125C19.7812 13.125 14.3587 14.9185 11.1966 17.6869C12.0172 15.5496 13.2918 13.6159 14.9324 12.019C16.573 10.4222 18.5404 9.20022 20.6991 8.43753H20.6953ZM42 23.4375C42 28.0107 34.7016 31.875 26.0625 31.875C17.4234 31.875 10.125 28.0107 10.125 23.4375C10.125 18.8644 17.4234 15 26.0625 15C34.7016 15 42 18.8644 42 23.4375ZM7.3125 26.25C7.06386 26.25 6.8254 26.1513 6.64959 25.9754C6.47377 25.7996 6.375 25.5612 6.375 25.3125V21.5625C6.375 21.3139 6.47377 21.0754 6.64959 20.8996C6.8254 20.7238 7.06386 20.625 7.3125 20.625H8.47125C8.32447 21.5554 8.2505 22.4957 8.25 23.4375C8.25663 24.38 8.33845 25.3205 8.49469 26.25H7.3125ZM13.9369 40.7625L16.8019 43.6266C17.0637 43.8874 17.2713 44.1974 17.4125 44.5389C17.5538 44.8804 17.626 45.2464 17.625 45.616V45.75L12.0497 44.2866C12.2252 42.9202 12.8968 41.666 13.9369 40.7625ZM12 46.2188L17.625 47.6953V48.75H12V46.2188ZM24.1875 48.75V45.9375H27.9375V48.75H24.1875ZM34.5 48.75V47.6916L40.125 46.2188V48.75H34.5ZM40.0753 44.2903L34.5 45.75V45.6122C34.4992 45.2426 34.5717 44.8766 34.7131 44.5351C34.8545 44.1937 35.0622 43.8836 35.3241 43.6228L38.1881 40.7588C39.2298 41.6641 39.9016 42.9213 40.0753 44.2903ZM34.5 39.375C35.1973 39.376 35.8882 39.5074 36.5372 39.7622L33.9984 42.301C33.5617 42.7353 33.2155 43.2519 32.9797 43.8209C32.744 44.3899 32.6234 45.0001 32.625 45.616V48.75H29.8125V45C29.8125 44.7514 29.7137 44.5129 29.5379 44.3371C29.3621 44.1613 29.1236 44.0625 28.875 44.0625H23.25C23.0014 44.0625 22.7629 44.1613 22.5871 44.3371C22.4113 44.5129 22.3125 44.7514 22.3125 45V48.75H19.5V45.616C19.5018 45.0001 19.3814 44.39 19.1458 43.821C18.9102 43.252 18.5641 42.7353 18.1275 42.301L15.5878 39.7622C16.2368 39.5074 16.9277 39.376 17.625 39.375H18.1556C20.609 40.6079 23.3167 41.25 26.0625 41.25C28.8083 41.25 31.516 40.6079 33.9694 39.375H34.5ZM26.0625 39.375C22.8547 39.37 19.723 38.3979 17.0761 36.5856C14.4293 34.7733 12.3904 32.2051 11.2256 29.2163C14.3916 31.9688 19.8009 33.75 26.0625 33.75C32.3241 33.75 37.7334 31.9688 40.8994 29.2163C39.7346 32.2051 37.6957 34.7733 35.0489 36.5856C32.402 38.3979 29.2703 39.37 26.0625 39.375ZM45.75 25.3125C45.75 25.5612 45.6512 25.7996 45.4754 25.9754C45.2996 26.1513 45.0611 26.25 44.8125 26.25H43.6303C43.9515 24.3892 43.9566 22.4875 43.6453 20.625H44.8125C45.0611 20.625 45.2996 20.7238 45.4754 20.8996C45.6512 21.0754 45.75 21.3139 45.75 21.5625V25.3125Z" fill="#00D4FF"/>
</svg>
