<svg width="60" height="60" viewBox="0 0 60 60" fill="none" xmlns="http://www.w3.org/2000/svg">
<path d="M52.4875 32.8345H34.5605L31.7342 28.205C31.6024 27.9892 31.419 27.8114 31.2015 27.688C30.9839 27.5647 30.7392 27.5 30.4905 27.5C30.2417 27.5 29.9971 27.5647 29.7795 27.688C29.5619 27.8114 29.3786 27.9892 29.2467 28.205L26.4146 32.8345H20.2209C19.6374 32.8345 19.0778 33.0716 18.6652 33.4935C18.2527 33.9154 18.0209 34.4877 18.0209 35.0844V56.0834C18.0209 56.6801 18.2527 57.2524 18.6652 57.6744C19.0778 58.0963 19.6374 58.3333 20.2209 58.3333H52.4875C53.071 58.3333 53.6306 58.0963 54.0432 57.6744C54.4558 57.2524 54.6875 56.6801 54.6875 56.0834V35.0844C54.6875 34.4877 54.4558 33.9154 54.0432 33.4935C53.6306 33.0716 53.071 32.8345 52.4875 32.8345ZM36.3542 52.3336H24.6209C24.4264 52.3336 24.2399 52.2546 24.1023 52.1139C23.9648 51.9733 23.8875 51.7825 23.8875 51.5836C23.8875 51.3847 23.9648 51.194 24.1023 51.0533C24.2399 50.9127 24.4264 50.8337 24.6209 50.8337H36.3542C36.5487 50.8337 36.7352 50.9127 36.8728 51.0533C37.0103 51.194 37.0875 51.3847 37.0875 51.5836C37.0875 51.7825 37.0103 51.9733 36.8728 52.1139C36.7352 52.2546 36.5487 52.3336 36.3542 52.3336ZM48.0875 46.3339H24.6209C24.4264 46.3339 24.2399 46.2549 24.1023 46.1142C23.9648 45.9736 23.8875 45.7828 23.8875 45.5839C23.8875 45.385 23.9648 45.1943 24.1023 45.0536C24.2399 44.913 24.4264 44.834 24.6209 44.834H48.0875C48.282 44.834 48.4686 44.913 48.6061 45.0536C48.7436 45.1943 48.8209 45.385 48.8209 45.5839C48.8209 45.7828 48.7436 45.9736 48.6061 46.1142C48.4686 46.2549 48.282 46.3339 48.0875 46.3339ZM48.0875 40.3342H24.6209C24.4264 40.3342 24.2399 40.2552 24.1023 40.1145C23.9648 39.9739 23.8875 39.7831 23.8875 39.5842C23.8875 39.3853 23.9648 39.1945 24.1023 39.0539C24.2399 38.9132 24.4264 38.8342 24.6209 38.8342H48.0875C48.282 38.8342 48.4686 38.9132 48.6061 39.0539C48.7436 39.1945 48.8209 39.3853 48.8209 39.5842C48.8209 39.7831 48.7436 39.9739 48.6061 40.1145C48.4686 40.2552 48.282 40.3342 48.0875 40.3342Z" fill="#808080"/>
<path d="M25.625 2.5H13.4375C11.2006 2.50273 9.05605 3.39255 7.4743 4.9743C5.89255 6.55605 5.00273 8.70057 5 10.9375V40.9375C5.00248 43.1745 5.89223 45.3192 7.47403 46.901C9.05583 48.4828 11.2005 49.3725 13.4375 49.375H25.625C26.3709 49.375 27.0863 49.0787 27.6137 48.5512C28.1412 48.0238 28.4375 47.3084 28.4375 46.5625V35.3125C28.4375 34.5666 28.1412 33.8512 27.6137 33.3238C27.0863 32.7963 26.3709 32.5 25.625 32.5H21.875C21.1291 32.5 20.4137 32.7963 19.8863 33.3238C19.3588 33.8512 19.0625 34.5666 19.0625 35.3125V36.25H15.3125C15.0639 36.25 14.8254 36.1512 14.6496 35.9754C14.4738 35.7996 14.375 35.5611 14.375 35.3125V17.5C14.375 17.2514 14.4738 17.0129 14.6496 16.8371C14.8254 16.6613 15.0639 16.5625 15.3125 16.5625H19.0625C19.0625 17.3084 19.3588 18.0238 19.8863 18.5512C20.4137 19.0787 21.1291 19.375 21.875 19.375H25.625C26.3709 19.375 27.0863 19.0787 27.6137 18.5512C28.1412 18.0238 28.4375 17.3084 28.4375 16.5625V5.3125C28.4375 4.56658 28.1412 3.85121 27.6137 3.32376C27.0863 2.79632 26.3709 2.5 25.625 2.5V2.5ZM20.9375 35.3125C20.9375 35.0639 21.0363 34.8254 21.2121 34.6496C21.3879 34.4738 21.6264 34.375 21.875 34.375H25.625C25.8736 34.375 26.1121 34.4738 26.2879 34.6496C26.4637 34.8254 26.5625 35.0639 26.5625 35.3125V46.5625C26.5625 46.8111 26.4637 47.0496 26.2879 47.2254C26.1121 47.4012 25.8736 47.5 25.625 47.5H20.9375V35.3125ZM15.3125 14.6875C14.5666 14.6875 13.8512 14.9838 13.3238 15.5113C12.7963 16.0387 12.5 16.7541 12.5 17.5V35.3125C12.5 36.0584 12.7963 36.7738 13.3238 37.3012C13.8512 37.8287 14.5666 38.125 15.3125 38.125H19.0625V47.5H13.4375C11.6976 47.498 10.0296 46.806 8.7993 45.5757C7.56903 44.3454 6.87699 42.6774 6.875 40.9375V10.9375C6.87699 9.19763 7.56903 7.52958 8.7993 6.2993C10.0296 5.06903 11.6976 4.37699 13.4375 4.375H19.0625V14.6875H15.3125ZM26.5625 16.5625C26.5625 16.8111 26.4637 17.0496 26.2879 17.2254C26.1121 17.4012 25.8736 17.5 25.625 17.5H21.875C21.6264 17.5 21.3879 17.4012 21.2121 17.2254C21.0363 17.0496 20.9375 16.8111 20.9375 16.5625V4.375H25.625C25.8736 4.375 26.1121 4.47377 26.2879 4.64959C26.4637 4.8254 26.5625 5.06386 26.5625 5.3125V16.5625Z" fill="#00D4FF"/>
<path d="M30.9284 19.3084C30.7527 19.4842 30.654 19.7226 30.654 19.9712C30.654 20.2198 30.7527 20.4582 30.9284 20.634C32.3348 22.0405 33.1248 23.9481 33.1248 25.937C33.1248 27.926 32.3348 29.8335 30.9284 31.24C30.8413 31.327 30.7722 31.4304 30.7251 31.5441C30.6779 31.6579 30.6536 31.7798 30.6536 31.9029C30.6535 32.0261 30.6777 32.148 30.7248 32.2618C30.7719 32.3756 30.8409 32.479 30.928 32.5661C31.1038 32.742 31.3422 32.8409 31.5909 32.841C31.7141 32.841 31.836 32.8168 31.9498 32.7697C32.0636 32.7226 32.167 32.6536 32.2541 32.5666C34.0122 30.8084 34.9999 28.4239 34.9999 25.9375C34.9999 23.4511 34.0122 21.0666 32.2541 19.3084C32.0783 19.1327 31.8398 19.0339 31.5913 19.0339C31.3427 19.0339 31.1042 19.1327 30.9284 19.3084Z" fill="#00D4FF"/>
<path d="M38.1059 15.3314C37.9279 15.1676 37.6935 15.0789 37.4516 15.0839C37.2097 15.089 36.9792 15.1873 36.8081 15.3583C36.6371 15.5294 36.5387 15.76 36.5337 16.0018C36.5287 16.2437 36.6174 16.4781 36.7812 16.6561C39.2397 19.1193 40.6205 22.4572 40.6205 25.9374C40.6205 29.4175 39.2397 32.7555 36.7812 35.2186C36.6105 35.3955 36.516 35.6323 36.5181 35.8781C36.5202 36.1239 36.6188 36.359 36.7927 36.5328C36.9665 36.7067 37.2016 36.8053 37.4474 36.8074C37.6932 36.8095 37.93 36.715 38.1069 36.5443C40.9162 33.7293 42.4939 29.9147 42.4938 25.9377C42.4936 21.9606 40.9155 18.1462 38.1059 15.3314Z" fill="#00D4FF"/>
<path d="M43.9587 11.3537C43.7819 11.183 43.545 11.0885 43.2992 11.0906C43.0534 11.0927 42.8183 11.1913 42.6445 11.3652C42.4706 11.539 42.372 11.7741 42.3699 12.0199C42.3678 12.2657 42.4623 12.5026 42.633 12.6794C46.1493 16.1957 48.1247 20.9647 48.1247 25.9375C48.1247 30.9102 46.1493 35.6793 42.633 39.1956C42.4623 39.3724 42.3678 39.6092 42.3699 39.8551C42.372 40.1009 42.4706 40.336 42.6445 40.5098C42.8183 40.6836 43.0534 40.7822 43.2992 40.7844C43.545 40.7865 43.7819 40.692 43.9587 40.5212C47.8264 36.6533 49.9993 31.4074 49.9993 25.9375C49.9993 20.4676 47.8264 15.2217 43.9587 11.3537Z" fill="#00D4FF"/>
</svg>
