<svg width="20" height="20" viewBox="0 0 20 20" fill="none" xmlns="http://www.w3.org/2000/svg">
<path d="M5.78255 4.16652C5.78233 4.60855 5.60652 5.03239 5.29381 5.34479C4.98109 5.6572 4.55708 5.83258 4.11505 5.83236C3.67302 5.83214 3.24919 5.65633 2.93678 5.34361C2.62438 5.0309 2.449 4.60688 2.44922 4.16486C2.44944 3.72283 2.62525 3.29899 2.93796 2.98659C3.25068 2.67419 3.67469 2.4988 4.11672 2.49902C4.55875 2.49924 4.98258 2.67505 5.29499 2.98777C5.60739 3.30049 5.78277 3.7245 5.78255 4.16652ZM5.83255 7.06652H2.49922V17.4999H5.83255V7.06652ZM11.0992 7.06652H7.78255V17.4999H11.0659V12.0249C11.0659 8.97486 15.0409 8.69152 15.0409 12.0249V17.4999H18.3326V10.8915C18.3326 5.74986 12.4492 5.94152 11.0659 8.46652L11.0992 7.06652Z" fill="white" fill-opacity="0.85"/>
</svg>
