<svg width="50" height="50" viewBox="0 0 50 50" fill="none" xmlns="http://www.w3.org/2000/svg">
<path d="M20.7281 36.925C17.1922 33.5156 12.5 27.5633 12.5 19.9219C12.5 16.6067 13.817 13.4272 16.1612 11.083C18.5054 8.73883 21.6848 7.42188 25 7.42188C28.3152 7.42188 31.4946 8.73883 33.8388 11.083C36.183 13.4272 37.5 16.6067 37.5 19.9219C37.5 27.5633 32.8078 33.5156 29.2719 36.925C31.0352 37.482 32.0312 38.3664 32.0312 39.4531C32.0312 41.5047 28.4945 42.5781 25 42.5781C21.5055 42.5781 17.9688 41.5047 17.9688 39.4531C17.9688 38.3664 18.9648 37.482 20.7281 36.925ZM29.6875 19.9219C29.6875 18.9948 29.4126 18.0885 28.8975 17.3176C28.3824 16.5468 27.6504 15.946 26.7938 15.5912C25.9373 15.2364 24.9948 15.1436 24.0855 15.3244C23.1762 15.5053 22.341 15.9518 21.6854 16.6073C21.0299 17.2629 20.5834 18.0981 20.4026 19.0074C20.2217 19.9167 20.3145 20.8592 20.6693 21.7157C21.0241 22.5722 21.6249 23.3043 22.3958 23.8194C23.1666 24.3345 24.0729 24.6094 25 24.6094C26.2432 24.6094 27.4355 24.1155 28.3146 23.2364C29.1936 22.3574 29.6875 21.1651 29.6875 19.9219ZM25 41.0156C28.5523 41.0156 30.4688 39.907 30.4688 39.4531C30.4688 39.1906 29.6789 38.5578 27.8992 38.1797C27.1153 38.868 26.292 39.5103 25.4336 40.1031C25.3052 40.1888 25.1543 40.2345 25 40.2345C24.8457 40.2345 24.6948 40.1888 24.5664 40.1031C23.708 39.5103 22.8847 38.868 22.1008 38.1797C20.3211 38.5578 19.5312 39.1906 19.5312 39.4531C19.5312 39.907 21.4477 41.0156 25 41.0156Z" fill="#00D4FF"/>
</svg>
