<svg width="60" height="60" viewBox="0 0 60 60" fill="none" xmlns="http://www.w3.org/2000/svg">
<path d="M55.6957 30.1045H41.2278C40.0292 30.1045 39.0576 31.0761 39.0576 32.2747V39.5086C39.0576 40.7072 40.0292 41.6788 41.2278 41.6788H55.6957C56.8943 41.6788 57.8659 40.7072 57.8659 39.5086V32.2747C57.8659 31.0761 56.8943 30.1045 55.6957 30.1045Z" fill="#808080"/>
<path d="M55.659 28.6577C55.8695 27.594 55.8416 26.4968 55.5774 25.4452C55.3132 24.3935 54.8191 23.4135 54.1308 22.5756C53.4425 21.7378 52.5771 21.0629 51.5967 20.5995C50.6164 20.1361 49.5455 19.8958 48.4612 19.8958C47.3768 19.8958 46.306 20.1361 45.3256 20.5995C44.3453 21.0629 43.4798 21.7378 42.7915 22.5756C42.1032 23.4135 41.6092 24.3935 41.345 25.4452C41.0807 26.4968 41.0529 27.594 41.2634 28.6577H55.659Z" fill="#808080"/>
<path d="M43.9948 54.1934C44.0472 54.7293 44.2975 55.2264 44.6968 55.5876C45.0961 55.9488 45.6157 56.1481 46.1541 56.1466H50.7694C51.3078 56.1481 51.8274 55.9488 52.2267 55.5876C52.626 55.2264 52.8763 54.7293 52.9287 54.1934L54.0355 43.1255H42.8916L43.9948 54.1934Z" fill="#808080"/>
<path d="M49.1414 43.7039L44.9461 30.4195C44.5294 29.0871 43.6971 27.923 42.5711 27.0977C41.445 26.2724 40.0843 25.8293 38.6882 25.8333H13.1826C11.7865 25.8292 10.4257 26.2722 9.29965 27.0975C8.17356 27.9228 7.34132 29.087 6.92481 30.4195L2.73043 43.7039C2.49492 44.4528 2.43895 45.2467 2.56706 46.0213C2.69516 46.7958 3.00374 47.5294 3.46785 48.1626C3.93195 48.7958 4.53856 49.311 5.23861 49.6663C5.93867 50.0217 6.71253 50.2074 7.49762 50.2083H44.3742C45.1592 50.2072 45.933 50.0214 46.6329 49.666C47.3329 49.3105 47.9394 48.7954 48.4034 48.1622C48.8675 47.5291 49.1761 46.7956 49.3043 46.0211C49.4325 45.2466 49.3767 44.4528 49.1414 43.7039ZM4.51637 44.2664L8.71356 30.9895C9.01008 30.0368 9.60402 29.2042 10.4083 28.6137C11.2126 28.0232 12.1849 27.7059 13.1826 27.7083H24.9951V48.3333H7.49762C7.00704 48.3328 6.52347 48.2168 6.086 47.9948C5.64853 47.7728 5.26944 47.4509 4.97939 47.0553C4.68934 46.6596 4.49646 46.2013 4.41635 45.7173C4.33624 45.2333 4.37115 44.7372 4.51825 44.2692L4.51637 44.2664ZM44.3742 48.3333H26.8701V27.7083H38.6826C39.6805 27.7057 40.6531 28.0229 41.4575 28.6134C42.262 29.2039 42.856 30.0367 43.1526 30.9895L47.3479 44.2739C47.494 44.7412 47.5283 45.2362 47.4481 45.7192C47.3678 46.2021 47.1753 46.6595 46.886 47.0544C46.5967 47.4493 46.2186 47.7708 45.7824 47.9929C45.3461 48.2151 44.8638 48.3316 44.3742 48.3333Z" fill="#00D4FF"/>
<path d="M13.7451 5.20825H17.4951V13.6458C17.4951 15.8835 18.3841 18.0296 19.9664 19.612C21.5487 21.1943 23.6949 22.0833 25.9326 22.0833C28.1704 22.0833 30.3165 21.1943 31.8988 19.612C33.4812 18.0296 34.3701 15.8835 34.3701 13.6458V6.14575C34.3701 5.39983 34.0738 4.68446 33.5464 4.15701C33.0189 3.62957 32.3035 3.33325 31.5576 3.33325H13.7451C13.4965 3.33325 13.258 3.43202 13.0822 3.60784C12.9064 3.78365 12.8076 4.02211 12.8076 4.27075C12.8076 4.51939 12.9064 4.75785 13.0822 4.93366C13.258 5.10948 13.4965 5.20825 13.7451 5.20825ZM31.5576 5.20825C31.8063 5.20825 32.0447 5.30702 32.2205 5.48284C32.3963 5.65865 32.4951 5.89711 32.4951 6.14575V13.6458C32.4951 15.3862 31.8037 17.0554 30.573 18.2861C29.3423 19.5168 27.6731 20.2083 25.9326 20.2083C24.1921 20.2083 22.5229 19.5168 21.2922 18.2861C20.0615 17.0554 19.3701 15.3862 19.3701 13.6458V5.20825H31.5576Z" fill="#00D4FF"/>
<path d="M20.3076 34.2708H12.8076C12.559 34.2708 12.3205 34.3695 12.1447 34.5453C11.9689 34.7212 11.8701 34.9596 11.8701 35.2083V39.8958C11.8701 40.1444 11.9689 40.3828 12.1447 40.5587C12.3205 40.7345 12.559 40.8333 12.8076 40.8333H20.3076C20.5563 40.8333 20.7947 40.7345 20.9705 40.5587C21.1463 40.3828 21.2451 40.1444 21.2451 39.8958V35.2083C21.2451 34.9596 21.1463 34.7212 20.9705 34.5453C20.7947 34.3695 20.5563 34.2708 20.3076 34.2708ZM19.3701 38.9583H13.7451V36.1458H19.3701V38.9583Z" fill="#00D4FF"/>
</svg>
