<svg width="20" height="20" viewBox="0 0 20 20" fill="none" xmlns="http://www.w3.org/2000/svg">
<g clip-path="url(#clip0)">
<path fill-rule="evenodd" clip-rule="evenodd" d="M2.37167 5.73917C2.39667 5.49333 2.3025 5.25083 2.11917 5.08583L0.2525 2.83583V2.5H6.05083L10.5325 12.3292L14.4725 2.5H20V2.83583L18.4033 4.36667C18.2658 4.47167 18.1975 4.64417 18.2258 4.815V16.0633C18.1975 16.2333 18.2658 16.4058 18.4033 16.5108L19.9625 18.0417V18.3775H12.1192V18.0417L13.735 16.4733C13.8933 16.315 13.8933 16.2683 13.8933 16.0258V6.93417L9.4025 18.3408H8.79583L3.56667 6.93417V14.5792C3.52333 14.9 3.63 15.2242 3.85583 15.4558L5.95667 18.0042V18.3408H0V18.0042L2.10083 15.4558C2.32583 15.2233 2.42583 14.8975 2.37167 14.5792V5.73917Z" fill="white" fill-opacity="0.85"/>
</g>
<defs>
<clipPath id="clip0">
<rect width="20" height="20" fill="white"/>
</clipPath>
</defs>
</svg>
