<svg width="200" height="100" viewBox="0 0 200 100" fill="none" xmlns="http://www.w3.org/2000/svg">
<g clip-path="url(#clip0_10_237)">
<path d="M94.9429 16.642C93.5715 18.1111 93.6572 18.4568 96.3143 22C97.8572 23.9876 99.4858 25.716 99.9143 25.716C100.343 25.8025 101.886 23.9012 103.257 21.6543C105.657 17.679 105.743 17.4197 104.2 16.2963C101.8 14.4815 96.6572 14.6543 94.9429 16.642ZM100.686 19.5802C99.9143 20.8765 98.8858 19.2346 99.4 17.4197C99.8286 15.6049 99.9143 15.6049 100.429 17.2469C100.771 18.1111 100.857 19.1481 100.686 19.5802Z" fill="white"/>
<path d="M69.5714 28.3087V37.2099L65.1143 36.7778L60.5714 36.4321L76.8571 52.9383L93.1428 69.4445L93.4 54.1482L93.6571 38.7654L89.2857 34.7037L85 30.7284V25.0247C85 20.5309 84.7428 19.321 83.7143 19.321C82.6857 19.321 82.4286 20.4445 82.4286 24.5062C82.4286 29.6914 83.7143 33.5803 86.5428 36.8642C87.2286 37.642 87.6571 38.5926 87.4 38.8519C87.1428 39.1111 85.5143 36.9506 83.8 34.1852C81.2286 29.8642 80.7143 28.2222 80.7143 24.1605C80.7143 21.4815 80.3714 19.321 79.8571 19.321C78.9143 19.321 78.8286 19.5803 78.8286 25.8025C78.8286 29.2593 79.5143 31.3333 81.9143 35.4815C83.6286 38.4198 85.7714 41.0988 86.8 41.358C87.7428 41.7037 88.3428 42.1358 88.0857 42.3951C87.0571 43.4321 83.4571 39.9753 80.4571 35.0494C77.7143 30.5556 77.2857 29.1729 77.2857 24.5926V19.321H73.4286H69.5714V28.3087ZM71.0286 34.1852C70.8571 35.7408 70.6857 34.7037 70.6857 31.8519C70.6857 29 70.8571 27.7037 71.0286 29C71.2 30.2963 71.2 32.6296 71.0286 34.1852ZM78.9143 46.4568C78.7428 48.4445 79 50.6914 79.4286 51.3827C80.1143 52.4198 79.9428 52.4198 78.7428 51.3827C77.1143 50.0864 76.6 41.2716 78.1428 42.2222C78.6571 42.5679 79 44.4691 78.9143 46.4568ZM83.2 50.1729C84.3143 52.5926 84.3143 52.5926 82.5143 50.9506C80.6286 49.2222 80.2 47.8395 81.4 47.8395C81.8286 47.8395 82.6 48.8766 83.2 50.1729Z" fill="white"/>
<path d="M117.143 26.6666C114.4 30.7284 111.914 33.8395 111.657 33.5802C111.486 33.321 109.943 34.358 108.4 35.9136L105.571 38.679V54.2345V69.7901L111.4 64C114.571 60.8024 117.486 58.2099 117.914 58.2099C118.686 58.2099 131.286 45.679 131.286 44.8148C131.286 44.4691 130 44.4691 128.543 44.7284C126.057 45.1605 126.143 45.0741 129.229 43.9506C131.114 43.1728 134.029 41.2716 135.571 39.6296L138.486 36.6049H135.143C132.914 36.6049 131.114 37.2099 129.657 38.5061L127.429 40.4938L129.143 38.4197L130.857 36.3457L128.629 36.8642L126.314 37.4691L128.714 28.395L131.2 19.321H126.657H122.114L117.143 26.6666ZM123.571 22.2592C123.571 22.4321 122.886 23.1234 122.114 23.7284C120.743 24.8518 120.657 24.7654 121.771 23.3827C122.886 22 123.571 21.5679 123.571 22.2592ZM123.829 26.6666C123.571 27.4444 123.143 27.8765 122.971 27.6173C122.714 27.358 122.8 26.8395 123.143 26.321C123.914 24.9382 124.429 25.1975 123.829 26.6666ZM120.143 27.4444C120.143 27.6173 119.457 28.3086 118.686 28.9136C117.314 30.037 117.229 29.9506 118.343 28.5679C119.457 27.1852 120.143 26.7531 120.143 27.4444ZM116.714 32.6296C116.714 32.8024 116.029 33.4938 115.257 34.0987C113.886 35.2222 113.8 35.1358 114.914 33.7531C116.029 32.3703 116.714 31.9382 116.714 32.6296ZM115.943 37.7284C115.086 38.5061 115 38.4197 115.514 37.2099C115.771 36.3457 116.286 35.9136 116.543 36.1728C116.8 36.4321 116.543 37.1234 115.943 37.7284ZM114.314 40.2345C113.714 40.8395 113.286 42.5679 113.286 44.037C113.286 45.5926 112.943 47.1481 112.429 47.4074C111.057 48.2716 111.4 43.2592 112.943 41.0987C113.629 40.0617 114.486 39.1975 114.829 39.1975C115.086 39.1975 114.914 39.6296 114.314 40.2345ZM113.286 52.0741C113.286 53.9753 112.943 55.7901 112.429 56.0494C111.914 56.395 111.571 55.0123 111.571 52.679C111.571 50.5185 112 48.7037 112.429 48.7037C112.943 48.7037 113.286 50.2592 113.286 52.0741Z" fill="white"/>
<path d="M93.5714 31.8518C92.6286 32.9753 92.8 33.4938 94.2572 35.1358C95.8857 36.9506 96.0572 37.9876 95.9714 54.6666C95.9714 71.3457 96.0572 72.2963 97.7714 74.0247L99.5714 75.8395L101.714 73.7654L103.857 71.7777V54.0617C103.857 37.037 103.943 36.3456 105.657 34.7901C107.2 33.4938 107.371 32.9753 106.429 31.8518C104.971 30.037 95.0286 30.037 93.5714 31.8518Z" fill="white"/>
<path d="M82.2572 81.4568L81.9143 85H86.1143C88.5143 85 90.0572 84.6543 89.7143 84.1358C89.4572 83.7037 88.6 83.5309 87.7429 83.7901C86.8857 84.1358 86.6286 84.0494 87.2286 83.5309C89.2 82.0617 89.1143 80.1605 87.1429 79.9877C85.5143 79.9012 85.3429 80.1605 85.6857 81.9753C85.8572 83.2716 85.6857 84.1358 85.0857 84.1358C84.5714 84.1358 84.1429 83.2716 84.1429 82.1481C84.1429 78.3457 82.6 77.7407 82.2572 81.4568Z" fill="white"/>
<path d="M78.1428 81.9753C80.6286 84.6543 80.7143 84.6543 80.5428 82.1481C80.3714 80.679 79.7714 80.0741 78.2286 79.9877L76.0857 79.8148L78.1428 81.9753Z" fill="white"/>
<path d="M92.7999 80.7654C92.7142 81.5432 93.3999 82.4938 94.2571 82.8395C95.6285 83.4445 95.5428 83.5309 93.9999 84.2222C92.2857 85 92.2857 85 93.9999 84.7408C95.9714 84.4815 96.9142 81.5432 95.0285 81.5432C94.2571 81.5432 93.4857 81.0247 93.3142 80.4198C92.9714 79.8148 92.7999 79.9012 92.7999 80.7654Z" fill="white"/>
<path d="M97.8571 81.5432C98.3714 82.4938 98.5428 83.7037 98.2857 84.1358C98.0285 84.6543 98.3714 85 99.1428 85C99.9142 85 100.257 84.6543 100 84.1358C99.7428 83.7037 100 82.4074 100.514 81.3704C101.457 79.5556 101.457 79.4691 100.171 80.5926C99.2285 81.3704 98.7142 81.4568 98.7142 80.7654C98.7142 80.2469 98.2857 79.8148 97.8571 79.8148C97.2571 79.8148 97.2571 80.4198 97.8571 81.5432Z" fill="white"/>
<path d="M102.143 80.679C102.143 81.284 102.829 82.321 103.686 83.0123C105.057 84.2222 105.057 84.2222 103.686 83.7901C102.829 83.5309 102.143 83.7037 102.143 84.1358C102.143 84.6543 102.914 85 103.857 85C104.8 85 105.571 84.4815 105.571 83.8765C105.571 83.1852 104.8 81.9753 103.857 81.1111C102.657 80.0741 102.143 79.9012 102.143 80.679Z" fill="white"/>
<path d="M107.714 82.4074C107.714 83.8765 108.143 85 108.657 85C109.257 85 109.429 84.1358 109.171 82.8395C108.914 81.284 109.171 80.679 110.2 80.679C111.057 80.679 111.571 81.4568 111.571 82.8395C111.571 84.7407 111.914 85 114.829 85C116.971 85 117.657 84.7407 116.8 84.2222C116.114 83.7901 115 83.6173 114.4 83.8765C113.629 84.1358 113.2 83.8765 113.286 83.1852C113.714 80.4198 113.2 79.8148 110.543 79.8148C107.971 79.8148 107.714 80.0741 107.714 82.4074Z" fill="white"/>
<path d="M116.714 80.1605C116.714 81.4568 119.2 84.9136 119.629 84.2222C120.229 83.2716 118.429 79.8148 117.4 79.8148C116.971 79.8148 116.714 79.9876 116.714 80.1605Z" fill="white"/>
<path d="M120.914 79.9877C120.4 81.716 120.743 85 121.429 85C122.029 85 122.286 83.963 122.029 82.4074C121.686 80.2469 121.257 79.1235 120.914 79.9877Z" fill="white"/>
</g>
<defs>
<clipPath id="clip0_10_237">
<rect width="78" height="70" fill="white" transform="translate(61 15)"/>
</clipPath>
</defs>
</svg>
